<svg xmlns="http://www.w3.org/2000/svg" width="311.685" height="32" viewBox="0 0 311.685 32"><defs><style>.a{fill:#ffe81f;fill-rule:evenodd;}</style></defs><path class="a" d="M72.215,118.734l10.426-31.96H98.388l10.6,31.96H97l-1.994-5.758H85.585l-2,5.758ZM90.548,93.853,86,106.516h8.74ZM205.6,118.748l10.426-31.96h15.745l10.607,31.96H230.387L228.4,112.99h-9.423l-2,5.758Zm18.332-24.881-4.548,12.663h8.74Zm-112.2,24.868V86.774H134.4a10.989,10.989,0,0,1,6.281,2.033,8.393,8.393,0,0,1,3.6,4.518,10.983,10.983,0,0,1,.09,6.551,8.23,8.23,0,0,1-2.766,3.853,10.932,10.932,0,0,1-4.868,2.432,10.324,10.324,0,0,0,2.059,1.8c1.524,1.078,2.93,1.231,8.145,1.253l8.966,0v9.521l-9.028.023c-9.826.025-13.285-.052-15.167-1.741a83.408,83.408,0,0,1-8.518-8.838v10.556H111.732Zm11.46-24v5.894h7.988a2.608,2.608,0,0,0,1.388-.476c.495-.317.765-1.118.795-2.4a3.21,3.21,0,0,0-.891-2.426,2.383,2.383,0,0,0-1.3-.59h-7.975Zm191.326-7.95H291.13q-6.057,0-7.2,5.931t6.507,13.01q4.633,3.686-1.584,3.5h-5.438v-.013l-2.882,0c-5.216-.022-6.622-.173-8.145-1.253a10.331,10.331,0,0,1-2.059-1.8,10.931,10.931,0,0,0,4.868-2.432,8.207,8.207,0,0,0,2.766-3.853,11,11,0,0,0-.092-6.551,8.394,8.394,0,0,0-3.6-4.518,10.989,10.989,0,0,0-6.281-2.033H245.322v31.96h11.46V108.178a83.071,83.071,0,0,0,8.518,8.838c1.881,1.689,5.339,1.818,15.167,1.741l1.7-.013v0h16.865q6.842-1.157,6.985-7.087c.082-3.952-2.2-8.073-6.985-12.217-2.612-2.262-2.092-3.144,1.669-3.144h13.813V86.787Zm-57.736,7.95v5.894h7.988a2.594,2.594,0,0,0,1.386-.476c.495-.317.765-1.118.795-2.4a3.21,3.21,0,0,0-.891-2.426,2.376,2.376,0,0,0-1.3-.59ZM28.012,86.774q-6.06,0-7.2,5.931c-.758,3.952,1.284,8.432,6.5,13.01,2.967,2.6,2.556,3.5-1.581,3.5H2.834v9.521H35.919c4.628,0,6.9-3.13,6.985-7.087s-2.241-8.023-6.985-12.217q-3.978-3.321,1.671-3.142h14.2v22.447H62.1V96.287H76.5V86.774Zm151.243,0-2.837,9.5-3.147-9.5H161.442l10.426,31.96h10.214l3.5-10.677,3.5,10.677H199.29l10.426-31.96H197.887l-3.147,9.5-2.837-9.5Z" transform="translate(-2.834 -86.774)"/></svg>